<?xml version="1.0" standalone="no"?>
<!DOCTYPE svg PUBLIC "-//W3C//DTD SVG 20010904//EN"
 "http://www.w3.org/TR/2001/REC-SVG-20010904/DTD/svg10.dtd">
<svg version="1.0" xmlns="http://www.w3.org/2000/svg"
 width="399.000000pt" height="399.000000pt" viewBox="0 0 399.000000 399.000000"
 preserveAspectRatio="xMidYMid meet">
<metadata>
Created by potrace 1.14, written by Peter Selinger 2001-2017
</metadata>
<g transform="translate(0.000000,399.000000) scale(0.100000,-0.100000)"
fill="#000000" stroke="none">
<path d="M1967 3944 c-1 -1 -58 -4 -127 -7 -69 -3 -161 -13 -205 -22 -44 -10
-89 -18 -100 -20 -11 -2 -21 -4 -22 -5 -2 -2 -6 -3 -10 -5 -5 -1 -20 -5 -34
-9 -14 -4 -32 -9 -40 -10 -8 -2 -21 -6 -29 -9 -8 -3 -33 -11 -55 -18 -22 -7
-56 -19 -75 -27 -19 -8 -36 -14 -37 -13 -2 0 -19 -8 -38 -19 -20 -11 -42 -20
-49 -20 -8 0 -16 -3 -18 -7 -1 -5 -30 -21 -63 -38 -33 -16 -62 -33 -65 -36 -3
-3 -21 -14 -40 -25 -19 -10 -37 -21 -40 -25 -3 -3 -34 -25 -70 -50 -85 -58
-77 -51 -215 -187 -143 -139 -226 -243 -317 -395 -37 -61 -72 -117 -78 -124
-5 -7 -10 -18 -10 -24 0 -7 -11 -35 -24 -63 -74 -161 -133 -372 -157 -561 -17
-141 -14 -424 6 -525 9 -46 15 -75 21 -105 3 -16 7 -37 8 -45 1 -9 5 -21 10
-28 4 -6 5 -16 1 -21 -3 -5 -1 -12 4 -15 8 -6 26 -73 23 -88 -1 -5 3 -8 9 -8
5 0 8 -4 5 -9 -3 -5 3 -31 15 -57 11 -27 24 -58 28 -69 42 -109 163 -326 225
-406 12 -15 32 -41 46 -59 14 -18 43 -54 65 -78 288 -327 653 -536 1090 -628
112 -23 158 -27 335 -30 270 -4 373 10 610 80 146 42 354 137 457 207 23 16
46 29 51 29 6 0 12 3 14 8 2 4 21 19 44 35 22 15 49 35 60 45 10 9 35 29 54
44 72 55 262 254 318 333 80 112 153 235 193 325 11 25 27 59 36 75 31 62 101
290 118 385 2 14 9 48 15 75 26 124 23 503 -5 635 -3 14 -10 48 -15 75 -35
175 -113 377 -222 574 -21 37 -118 183 -127 191 -3 3 -26 30 -50 60 -70 87
-138 155 -241 241 -122 103 -129 109 -136 109 -2 0 -28 17 -57 38 -53 40 -206
120 -312 165 -131 56 -331 113 -481 137 -58 10 -291 28 -297 24z m208 -358
c33 -5 80 -12 105 -17 25 -5 57 -11 72 -14 59 -9 248 -79 341 -126 92 -45 241
-139 284 -177 10 -10 47 -42 82 -72 107 -92 298 -339 357 -463 17 -36 17 -38
-2 -52 -10 -8 -37 -15 -60 -15 -22 0 -44 -3 -48 -7 -3 -4 -17 -8 -29 -10 -12
-2 -47 -7 -77 -12 -30 -5 -84 -9 -119 -10 -36 -1 -68 -4 -73 -7 -4 -3 -76 3
-160 13 -221 25 -705 25 -798 -1 -36 -10 -85 -20 -110 -23 -25 -3 -47 -8 -50
-11 -6 -9 -63 -31 -115 -45 -22 -7 -43 -16 -47 -22 -4 -5 -8 -7 -8 -3 0 4 -16
0 -35 -8 -19 -7 -48 -14 -64 -14 -16 0 -32 -4 -35 -9 -5 -8 -85 -21 -163 -27
-61 -4 -173 -27 -173 -36 0 -4 -9 -8 -20 -8 -11 0 -20 -4 -20 -10 0 -5 -7 -10
-15 -10 -8 0 -15 -4 -15 -10 0 -5 -6 -10 -13 -10 -7 0 -23 -10 -34 -22 -11
-13 -36 -37 -54 -54 -63 -57 -98 -107 -151 -214 -31 -62 -50 -153 -54 -250 -3
-89 -1 -100 29 -169 24 -57 40 -80 65 -94 39 -23 45 -19 82 51 37 69 60 77
220 77 74 0 158 -4 185 -8 173 -27 204 -33 415 -84 144 -34 280 -74 480 -140
58 -19 112 -36 120 -38 8 -2 58 -19 110 -38 316 -115 715 -300 705 -326 -10
-26 -130 -169 -137 -164 -5 2 -8 -3 -8 -11 0 -9 -3 -16 -8 -16 -4 0 -39 -29
-77 -65 -38 -36 -73 -65 -77 -65 -5 0 -21 -13 -38 -28 -16 -16 -46 -37 -67
-48 -21 -10 -40 -22 -41 -27 -2 -4 -8 -5 -13 -1 -5 3 -12 -2 -15 -10 -3 -9
-15 -16 -25 -16 -10 0 -28 -8 -38 -17 -11 -9 -30 -18 -43 -20 -13 -2 -24 -8
-26 -13 -2 -6 -12 -10 -23 -10 -10 0 -19 -3 -19 -8 0 -4 -15 -13 -32 -20 -18
-7 -41 -18 -50 -23 -10 -5 -27 -9 -37 -9 -11 0 -22 -4 -26 -9 -3 -5 -31 -15
-63 -21 -31 -7 -68 -17 -82 -22 -34 -14 -61 -18 -155 -24 -44 -3 -91 -9 -105
-13 -34 -11 -281 -5 -360 8 -116 21 -197 40 -272 67 -74 27 -268 119 -278 132
-3 4 -18 14 -35 22 -16 8 -32 17 -35 20 -3 3 -32 25 -64 50 -212 160 -377 362
-494 601 -23 48 -42 90 -42 94 0 4 -7 21 -15 38 -28 61 -67 213 -84 329 -18
118 -21 348 -7 433 4 22 11 72 17 110 15 97 78 283 134 398 236 485 709 821
1245 883 30 3 56 7 58 9 6 5 270 -2 327 -9z m185 -1206 c54 -7 99 -20 125 -35
41 -24 75 -58 75 -75 0 -6 5 -10 10 -10 6 0 10 -17 10 -39 0 -37 -14 -59 -63
-98 -18 -14 -124 -26 -131 -14 -3 5 -27 12 -53 16 -25 4 -71 18 -101 31 -30
13 -60 24 -67 24 -18 0 -97 75 -88 83 3 4 -1 7 -10 7 -29 0 -77 50 -77 80 0
27 3 29 48 35 26 3 54 7 62 9 32 5 179 -3 260 -14z"/>
</g>
</svg>
