<?xml version="1.0" encoding="utf-8"?>
<!-- Generator: Adobe Illustrator 27.0.1, SVG Export Plug-In . SVG Version: 6.00 Build 0)  -->
<svg version="1.1" id="Layer_1" xmlns="http://www.w3.org/2000/svg" xmlns:xlink="http://www.w3.org/1999/xlink" x="0px" y="0px"
	 viewBox="0 0 168.96 49.27" style="enable-background:new 0 0 168.96 49.27;" xml:space="preserve">
<style type="text/css">
	.st0{fill:#2CA1CE;}
	.st1{fill:#502D14;}
	.st2{fill:#2DA1CE;}
	.st3{fill:none;stroke:#502D14;stroke-width:3;stroke-miterlimit:10;}
</style>
<g>
	<g>
		<path class="st0" d="M157.12,18.2c0.78-0.55,1.68-0.57,2.58-0.56c1.66,0.01,3.31,0.07,4.92,0.51c2.4,0.66,2.92,1.52,3.28,3.84
			c0.57,3.66-0.08,7.22-1.11,10.73c-0.96,3.24-2.36,6.29-4.1,9.18c-1.08,1.79-2.59,3.16-4.41,4.33c0.03-0.46,0.18-0.76,0.42-1.03
			c2.68-3.07,4.52-6.6,5.55-10.54c0.61-2.34,0.76-4.73,0.62-7.14c-0.11-1.75-0.45-3.47-0.98-5.14c-0.45-1.4-1.5-2.23-2.86-2.67
			c-1.63-0.52-3.27-0.31-4.91,0.02c-0.6,0.12-1.21,0.24-1.81,0.34c-0.16,0.03-0.38,0.12-0.49-0.05c-0.11-0.19-0.01-0.4,0.12-0.57
			c0.41-0.56,0.86-1.09,1.36-1.58c1.02-1.01,1.84-2.17,2.32-3.54c0.86-2.45,0.54-4.79-0.74-7.01c-1.08-1.89-2.91-2.71-4.91-3.15
			c-2.48-0.54-4.63,0.26-6.48,1.95c-1.12,1.02-1.92,2.23-2.22,3.72c-0.29,1.43-0.16,2.85,0.21,4.25c0.43,1.62,1.13,3.11,2.02,4.52
			c0.08,0.13,0.17,0.27,0.25,0.4c0.09,0.14,0.13,0.32,0.03,0.45c-0.12,0.15-0.26-0.01-0.38-0.06c-1.64-0.66-2.65-1.96-3.25-3.52
			c-1.47-3.83-0.96-7.5,1.22-10.94c0.76-1.21,1.95-2.01,3.2-2.67c1.97-1.05,4.08-1.6,6.32-1.52c2.17,0.08,4.18,0.69,5.79,2.22
			c1.39,1.32,2.2,2.99,2.51,4.88c0.45,2.81-0.47,5.29-1.96,7.61c-0.55,0.85-1.22,1.61-1.89,2.36c-0.09,0.1-0.22,0.18-0.25,0.34
			c-0.05,0.02-0.15,0.03-0.1,0.1C157.01,18.31,157.08,18.25,157.12,18.2z"/>
		<path class="st1" d="M144.78,19.63c-1.68,0.73-3.34,1.46-4.92,2.62c0.33,0,0.53,0.03,0.71-0.01c0.71-0.14,1.42-0.01,2.12,0.06
			c0.84,0.09,1.36,0.68,1.75,1.39c0.54,0.99,0.76,2.07,0.88,3.17c0.15,1.36,0.25,2.74,0.19,4.11c-0.08,1.86-0.2,3.71-0.42,5.56
			c-0.26,2.21-0.57,4.4-0.98,6.59c-0.05,0.24,0.04,0.4,0.23,0.57c1.61,1.4,3.51,2.04,5.62,2.21c1.27,0.1,2.54,0.22,3.82,0.29
			c0.55,0.03,0.85,0.54,1.29,0.87c-0.75,0.11-1.5,0.23-2.26,0.33c-1.5,0.21-3,0.4-4.49,0.63c-1.9,0.29-3.71,0.1-5.36-0.98
			c-0.99-0.65-1.7-1.53-2.29-2.54c-2.01-3.47-3.62-7.11-4.96-10.88c-0.48-1.34-0.94-2.68-1.13-4.09c-0.22-1.62-0.24-3.24,0.17-4.84
			c0.41-1.6,1.44-2.67,2.97-3.26c2.15-0.83,4.36-1.45,6.64-1.82C144.5,19.61,144.64,19.63,144.78,19.63z M143.76,43.17
			c0.16-0.45-0.04-0.79-0.01-1.15c0.06-0.74,0.14-1.48,0.15-2.21c0.07-3.2,0.03-6.4-0.56-9.57c-0.28-1.5-0.65-2.98-1.32-4.37
			c-0.27-0.56-0.69-0.93-1.28-1.1c-0.8-0.23-1.63-0.35-2.46-0.43c-0.36-0.03-0.53,0.08-0.64,0.44c-0.9,3.04-0.74,6.04,0.28,9.01
			c0.88,2.56,2.3,4.84,3.81,7.06C142.31,41.68,142.97,42.44,143.76,43.17z"/>
	</g>
	<g>
		<path class="st2" d="M18.92,23.46c0,0.66-0.12,1.21-0.36,1.66c-0.24,0.45-0.57,0.79-0.99,1.04s-0.9,0.43-1.43,0.54
			c-0.54,0.11-1.1,0.16-1.69,0.16H0.92V13.44h13.55c1.43,0,2.53,0.23,3.29,0.68c0.77,0.46,1.15,1.02,1.15,1.7v0.35
			c0,0.38-0.11,0.75-0.33,1.14c-0.22,0.38-0.54,0.69-0.95,0.92c-0.54,0.29-1.22,0.47-2.06,0.56v0.03c0.39,0.07,0.76,0.16,1.11,0.27
			c0.35,0.11,0.67,0.27,0.98,0.48c0.39,0.21,0.7,0.5,0.92,0.84c0.22,0.35,0.33,0.72,0.33,1.11V23.46z M14.47,16.26H5.39v2.49h9.08
			V16.26z M5.39,21.59v2.52h9.08v-2.52H5.39z"/>
		<path class="st2" d="M33.54,21.59H25v2.52h13.53c0,0.48-0.1,0.9-0.31,1.24c-0.21,0.35-0.5,0.63-0.87,0.86
			c-0.38,0.22-0.81,0.39-1.3,0.5c-0.49,0.11-1.02,0.16-1.59,0.16h-9.91c-0.55,0-1.07-0.07-1.55-0.2c-0.48-0.13-0.91-0.32-1.27-0.56
			c-0.37-0.24-0.66-0.53-0.87-0.87s-0.32-0.72-0.32-1.15v-7.85c0-0.41,0.11-0.79,0.32-1.12s0.5-0.63,0.87-0.87
			c0.37-0.24,0.79-0.43,1.27-0.58c0.48-0.14,0.99-0.21,1.53-0.21h9.94c1.23,0,2.22,0.24,2.96,0.72c0.74,0.48,1.11,1.18,1.11,2.09H25
			v2.49h8.54V21.59z"/>
		<path class="st2" d="M58.19,16.26c0,0.5-0.15,0.88-0.44,1.15c-0.29,0.27-0.58,0.47-0.84,0.62c-0.39,0.25-0.83,0.44-1.31,0.58
			c-0.48,0.13-0.99,0.2-1.53,0.2h-0.4v-2.54h-9.05v7.85h9.08v-2.73h4.45v2.65c0,0.48-0.11,0.9-0.32,1.26s-0.5,0.65-0.87,0.88
			s-0.8,0.41-1.3,0.52c-0.5,0.12-1.03,0.17-1.58,0.17h-9.94c-0.54,0-1.04-0.07-1.53-0.2c-0.48-0.13-0.91-0.32-1.27-0.56
			c-0.37-0.24-0.66-0.53-0.87-0.87s-0.32-0.72-0.32-1.15v-7.9c0-0.39,0.11-0.75,0.32-1.08c0.21-0.33,0.5-0.62,0.87-0.86
			c0.37-0.24,0.79-0.43,1.27-0.58c0.48-0.14,1-0.21,1.55-0.21h9.91c1.25,0,2.25,0.24,3,0.72S58.19,15.35,58.19,16.26z"/>
		<path class="st2" d="M77.85,16.26c0,0.5-0.15,0.88-0.44,1.15c-0.29,0.27-0.58,0.47-0.84,0.62c-0.39,0.25-0.83,0.44-1.31,0.58
			c-0.48,0.13-0.99,0.2-1.53,0.2h-0.4v-2.54h-9.05v7.85h9.08v-2.73h4.45v2.65c0,0.48-0.11,0.9-0.32,1.26s-0.5,0.65-0.87,0.88
			s-0.8,0.41-1.3,0.52c-0.5,0.12-1.03,0.17-1.58,0.17h-9.94c-0.54,0-1.04-0.07-1.53-0.2c-0.48-0.13-0.91-0.32-1.27-0.56
			c-0.37-0.24-0.66-0.53-0.87-0.87s-0.32-0.72-0.32-1.15v-7.9c0-0.39,0.11-0.75,0.32-1.08c0.21-0.33,0.5-0.62,0.87-0.86
			c0.37-0.24,0.79-0.43,1.27-0.58c0.48-0.14,1-0.21,1.55-0.21h9.91c1.25,0,2.25,0.24,3,0.72S77.85,15.35,77.85,16.26z"/>
		<path class="st2" d="M96.41,24.08c0,0.43-0.11,0.81-0.33,1.15c-0.22,0.34-0.52,0.63-0.88,0.87c-0.37,0.24-0.79,0.43-1.27,0.56
			s-1,0.2-1.55,0.2H83.5c-0.55,0-1.08-0.07-1.57-0.2c-0.49-0.13-0.92-0.32-1.29-0.56c-0.37-0.24-0.66-0.53-0.87-0.87
			s-0.32-0.72-0.32-1.15V13.44h0.48c1.18,0,2.14,0.17,2.88,0.51c0.74,0.34,1.11,0.94,1.11,1.79v8.36h8.01V13.44h4.47V24.08z"/>
		<path class="st2" d="M116.12,24.08c0,0.96-0.4,1.67-1.19,2.13s-1.83,0.68-3.12,0.68h-9.54c-0.54,0-1.06-0.06-1.57-0.17
			s-0.96-0.29-1.37-0.54c-0.4-0.24-0.72-0.53-0.96-0.87c-0.24-0.34-0.36-0.74-0.36-1.2h13.63v-2.52h-9.56
			c-0.54,0-1.05-0.06-1.54-0.17c-0.49-0.12-0.92-0.29-1.3-0.54s-0.67-0.54-0.9-0.88c-0.22-0.35-0.33-0.76-0.33-1.25v-2.22
			c0-0.54,0.11-1,0.33-1.39c0.22-0.39,0.52-0.71,0.9-0.96s0.81-0.43,1.3-0.55s1.01-0.17,1.57-0.17h9.75c1.29,0,2.32,0.22,3.09,0.66
			c0.78,0.44,1.17,1.16,1.17,2.16h-13.53v2.49h9.24c0.54,0,1.06,0.05,1.58,0.15c0.52,0.1,0.97,0.25,1.37,0.47s0.71,0.5,0.96,0.84
			c0.25,0.35,0.38,0.75,0.38,1.19V24.08z"/>
	</g>
	<g>
		<path class="st1" d="M28.01,32.64l-2.9,5.9c-0.05,0.09-0.11,0.16-0.2,0.22c-0.09,0.06-0.19,0.08-0.3,0.08
			c-0.1,0-0.2-0.03-0.29-0.08c-0.09-0.06-0.16-0.13-0.21-0.22l-2.89-5.9h1.24l2.15,4.41l2.16-4.41H28.01z"/>
		<path class="st1" d="M34.75,34.7c0,0.25-0.03,0.48-0.09,0.68s-0.15,0.37-0.25,0.53c-0.11,0.15-0.23,0.28-0.37,0.39
			c-0.14,0.11-0.29,0.2-0.44,0.27c-0.15,0.07-0.31,0.12-0.46,0.15c-0.15,0.03-0.3,0.05-0.44,0.05l2.32,2H33.3l-2.31-2h-0.8v-1.11
			h2.51c0.14-0.01,0.27-0.04,0.38-0.09s0.21-0.11,0.3-0.19c0.08-0.08,0.15-0.17,0.19-0.29c0.05-0.11,0.07-0.24,0.07-0.39V34
			c0-0.06-0.01-0.11-0.02-0.14c-0.02-0.03-0.04-0.06-0.06-0.07s-0.05-0.03-0.08-0.03c-0.03,0-0.05,0-0.07,0h-3.66v5.01h-1.11V33.2
			c0-0.08,0.01-0.15,0.04-0.22s0.07-0.13,0.12-0.18c0.05-0.05,0.11-0.09,0.18-0.12s0.14-0.04,0.22-0.04h4.21
			c0.25,0,0.46,0.04,0.63,0.13s0.31,0.2,0.42,0.34c0.11,0.13,0.18,0.28,0.23,0.44s0.07,0.3,0.07,0.44V34.7z"/>
		<path class="st1" d="M36.98,38.76h-1.11v-6.12h1.11V38.76z"/>
		<path class="st1" d="M43.42,37.2c0,0.22-0.04,0.43-0.12,0.62s-0.18,0.36-0.32,0.5c-0.14,0.14-0.3,0.25-0.49,0.33
			c-0.19,0.08-0.4,0.12-0.62,0.12H37.8v-1.11h4.06c0.14,0,0.24-0.04,0.32-0.12c0.08-0.08,0.12-0.19,0.12-0.33v-4.56h1.12V37.2z"/>
		<path class="st1" d="M45.8,35.14h3.89v-2.5h1.11v6.12H49.7v-2.5H45.8v2.5H44.7v-6.12h1.11V35.14z"/>
		<path class="st1" d="M57.63,38.76h-4c-0.15,0-0.32-0.03-0.5-0.08s-0.35-0.14-0.51-0.27s-0.28-0.28-0.39-0.48
			c-0.1-0.2-0.16-0.44-0.16-0.73v-4c0-0.08,0.01-0.15,0.04-0.22s0.07-0.13,0.12-0.18c0.05-0.05,0.11-0.09,0.18-0.12
			c0.07-0.03,0.14-0.04,0.22-0.04h4.99v1.11h-4.44v3.45c0,0.14,0.04,0.26,0.12,0.33c0.08,0.08,0.19,0.12,0.34,0.12h3.99V38.76z
			 M57.13,36.26h-3.5v-1.12h3.5V36.26z"/>
		<path class="st1" d="M59.82,38.76h-1.11v-6.12h1.11V38.76z"/>
		<path class="st1" d="M67.22,36.2c0,0.37-0.06,0.71-0.19,1.03s-0.31,0.58-0.54,0.81c-0.23,0.23-0.5,0.4-0.81,0.53
			c-0.31,0.13-0.65,0.19-1.02,0.19h-2.99c-0.08,0-0.15-0.01-0.22-0.04c-0.07-0.03-0.13-0.07-0.18-0.12s-0.09-0.11-0.12-0.18
			c-0.03-0.07-0.04-0.14-0.04-0.22v-5c0-0.08,0.01-0.15,0.04-0.22c0.03-0.07,0.07-0.13,0.12-0.18c0.05-0.05,0.11-0.09,0.18-0.12
			c0.07-0.03,0.14-0.04,0.22-0.04h2.99c0.37,0,0.71,0.06,1.02,0.19c0.31,0.13,0.58,0.3,0.81,0.53c0.23,0.23,0.41,0.5,0.54,0.81
			c0.13,0.31,0.19,0.66,0.19,1.03V36.2z M66.11,35.2c0-0.22-0.03-0.41-0.1-0.59c-0.07-0.18-0.17-0.33-0.3-0.46
			c-0.13-0.13-0.28-0.22-0.46-0.29s-0.37-0.1-0.59-0.1h-2.44v3.9h2.44c0.22,0,0.41-0.04,0.59-0.1c0.18-0.07,0.33-0.17,0.46-0.29
			c0.13-0.13,0.23-0.28,0.3-0.46s0.1-0.38,0.1-0.59V35.2z"/>
		<path class="st1" d="M72.26,38.76h-1.11v-6.12h1.11V38.76z"/>
		<path class="st1" d="M79.67,38.29c0,0.08-0.01,0.15-0.04,0.22c-0.03,0.07-0.07,0.13-0.12,0.18s-0.11,0.09-0.18,0.12
			c-0.07,0.03-0.14,0.04-0.22,0.04c-0.07,0-0.14-0.01-0.21-0.04c-0.07-0.03-0.13-0.07-0.19-0.12l-4.05-4.23v4.31h-1.11v-5.64
			c0-0.11,0.03-0.22,0.1-0.31c0.06-0.09,0.15-0.16,0.25-0.21c0.1-0.04,0.21-0.05,0.32-0.03c0.11,0.02,0.21,0.07,0.29,0.16l4.05,4.23
			v-4.31h1.11V38.29z"/>
		<path class="st1" d="M84.92,38.76h-1.11v-6.12h1.11V38.76z M90.21,38.76h-1.57l-2.5-2.5h-0.78v-1.12h0.78l2.5-2.5h1.57l-3.14,3.06
			L90.21,38.76z"/>
		<path class="st1" d="M96.39,38.76h-4c-0.15,0-0.32-0.03-0.5-0.08c-0.18-0.05-0.35-0.14-0.51-0.27c-0.15-0.12-0.28-0.28-0.39-0.48
			c-0.1-0.2-0.16-0.44-0.16-0.73v-4c0-0.08,0.01-0.15,0.04-0.22s0.07-0.13,0.12-0.18c0.05-0.05,0.11-0.09,0.18-0.12
			c0.07-0.03,0.14-0.04,0.22-0.04h4.99v1.11h-4.44v3.45c0,0.14,0.04,0.26,0.12,0.33c0.08,0.08,0.19,0.12,0.34,0.12h3.99V38.76z
			 M95.89,36.26h-3.5v-1.12h3.5V36.26z"/>
		<path class="st1" d="M103.45,38.2c0,0.08-0.01,0.15-0.04,0.22s-0.07,0.13-0.12,0.18c-0.05,0.05-0.11,0.09-0.18,0.12
			s-0.14,0.04-0.22,0.04h-2.5c-0.24,0-0.47-0.03-0.72-0.08c-0.24-0.05-0.48-0.13-0.7-0.24c-0.23-0.11-0.44-0.24-0.64-0.41
			c-0.2-0.17-0.37-0.36-0.52-0.59c-0.15-0.23-0.27-0.48-0.35-0.78c-0.08-0.29-0.13-0.62-0.13-0.97v-3.06h1.11v3.06
			c0,0.31,0.04,0.58,0.13,0.79s0.2,0.4,0.33,0.54c0.13,0.14,0.28,0.26,0.44,0.34c0.16,0.08,0.31,0.14,0.45,0.18s0.27,0.06,0.38,0.07
			s0.18,0.02,0.21,0.02h1.95v-5.01h1.11V38.2z"/>
		<path class="st1" d="M109.97,32.98c0.04,0.1,0.06,0.2,0.04,0.31c-0.02,0.11-0.06,0.2-0.14,0.28l-3.66,4.08h3.75v1.11h-5
			c-0.11,0-0.21-0.03-0.3-0.09c-0.09-0.06-0.16-0.14-0.21-0.24c-0.05-0.1-0.06-0.2-0.04-0.31c0.02-0.11,0.06-0.2,0.13-0.28
			l3.67-4.08h-3.76v-1.11h5.01c0.11,0,0.21,0.03,0.3,0.09C109.86,32.8,109.93,32.88,109.97,32.98z"/>
		<path class="st1" d="M116.5,38.76h-4c-0.15,0-0.32-0.03-0.5-0.08c-0.18-0.05-0.35-0.14-0.5-0.27c-0.16-0.12-0.28-0.28-0.39-0.48
			c-0.1-0.2-0.16-0.44-0.16-0.73v-4c0-0.08,0.01-0.15,0.04-0.22s0.07-0.13,0.12-0.18c0.05-0.05,0.11-0.09,0.18-0.12
			s0.14-0.04,0.22-0.04h4.99v1.11h-4.44v3.45c0,0.14,0.04,0.26,0.12,0.33c0.08,0.08,0.19,0.12,0.34,0.12h3.99V38.76z M116,36.26
			h-3.5v-1.12h3.5V36.26z"/>
	</g>
	<line class="st3" x1="126.49" y1="13.45" x2="126.49" y2="38.81"/>
</g>
</svg>
