<?xml version="1.0" encoding="utf-8"?>
<!-- Generator: Adobe Illustrator 27.0.1, SVG Export Plug-In . SVG Version: 6.00 Build 0)  -->
<svg version="1.1" id="Layer_1" xmlns="http://www.w3.org/2000/svg" xmlns:xlink="http://www.w3.org/1999/xlink" x="0px" y="0px"
	 viewBox="0 0 116.89 77.77" style="enable-background:new 0 0 116.89 77.77;" xml:space="preserve">
<style type="text/css">
	.st0{fill:#F37321;}
</style>
<g>
	<path class="st0" d="M19.06,16.44l26.62,12.28c0,0,14.52-27.55,42.06,0l10.79-12.28c0,0-32.01-35.92-64.96,0H19.06z"/>
	<path class="st0" d="M26.13,28.73c0,0-1.3,0.93-1.12,3.91l17.87,8.38v-4.47L26.13,28.73z"/>
	<path class="st0" d="M42.88,42.69c0,0,0.21,3.93,1.14,4.68l-23.85-12.1v-1.7L0.45,24.07l0.93-1.49L42.88,42.69z"/>
	<path class="st0" d="M45.67,49.94c0,0,7.07,13.03,20.85,11.91l-6.14-3.54l0.74-1.3l26.8,13.21c0,0-19.36,13.77-41.13,2.61
		c0,0-22.18-10.61-21.79-33.5L45.67,49.94z"/>
	<path class="st0" d="M72.29,60.55c0,0,6.7-1.49,10.24-5.77l32.76,15.63l-20.1-5.21l-5.75,4.14L72.29,60.55z"/>
</g>
</svg>
