<?xml version="1.0" encoding="utf-8"?>
<!-- Generator: Adobe Illustrator 27.0.1, SVG Export Plug-In . SVG Version: 6.00 Build 0)  -->
<svg version="1.1" id="Layer_1" xmlns="http://www.w3.org/2000/svg" xmlns:xlink="http://www.w3.org/1999/xlink" x="0px" y="0px"
	 viewBox="0 0 116.89 77.77" style="enable-background:new 0 0 116.89 77.77;" xml:space="preserve">
<style type="text/css">
	.st0{fill:#FFFFFF;}
</style>
<path class="st0" d="M33.4,10.88l15.72,7.26c0,0,8.58-16.27,24.85,0l6.38-7.26c0,0-18.91-21.22-38.37,0H33.4z"/>
<path class="st0" d="M37.58,18.14c0,0-0.77,0.55-0.66,2.31l10.55,4.95v-2.64L37.58,18.14z"/>
<path class="st0" d="M47.47,26.38c0,0,0.12,2.32,0.67,2.76L34.06,22v-1l-11.65-5.61l0.55-0.88L47.47,26.38z"/>
<path class="st0" d="M49.12,30.67c0,0,4.18,7.7,12.31,7.04l-3.63-2.09l0.44-0.77l15.83,7.81c0,0-11.43,8.14-24.3,1.54
	c0,0-13.1-6.27-12.87-19.79L49.12,30.67z"/>
<path class="st0" d="M64.84,36.94c0,0,3.96-0.88,6.05-3.41l19.35,9.24l-11.87-3.08l-3.39,2.45L64.84,36.94z"/>
<g>
	<path class="st0" d="M9.25,75.22c-1.39-0.89-2.43-2.13-3.13-3.72c-0.7-1.59-1.05-3.46-1.05-5.58c0-2.13,0.35-3.99,1.05-5.58
		c0.7-1.6,1.74-2.84,3.13-3.72c1.39-0.89,3.08-1.33,5.07-1.33c1.08,0,2.13,0.13,3.13,0.4c1,0.27,1.92,0.65,2.75,1.17v2.95h-0.12
		c-0.65-0.63-1.47-1.14-2.45-1.52c-0.98-0.38-2.06-0.58-3.22-0.58c-2.24,0-3.89,0.73-4.95,2.19c-1.05,1.46-1.58,3.47-1.58,6.03
		c0,2.58,0.53,4.6,1.58,6.05c1.05,1.46,2.69,2.19,4.92,2.19c1.12,0,2.18-0.19,3.18-0.56c0.99-0.37,1.84-0.9,2.53-1.57h0.12v2.95
		c-0.83,0.51-1.74,0.9-2.75,1.17c-1,0.27-2.05,0.4-3.13,0.4C12.33,76.54,10.64,76.1,9.25,75.22z"/>
	<path class="st0" d="M30.67,75.22c-1.41-0.89-2.48-2.13-3.22-3.72c-0.74-1.59-1.11-3.46-1.11-5.58c0-2.13,0.37-3.99,1.11-5.58
		c0.74-1.6,1.81-2.84,3.22-3.72c1.41-0.89,3.11-1.33,5.09-1.33c1.99,0,3.69,0.44,5.09,1.33c1.41,0.89,2.48,2.13,3.22,3.72
		c0.74,1.6,1.11,3.46,1.11,5.58c0,2.13-0.37,3.99-1.11,5.58c-0.74,1.6-1.81,2.84-3.22,3.72c-1.41,0.89-3.11,1.33-5.09,1.33
		C33.77,76.54,32.07,76.1,30.67,75.22z M40.72,71.95c1.1-1.49,1.65-3.5,1.65-6.04c0-2.54-0.55-4.55-1.65-6.04
		c-1.1-1.49-2.76-2.23-4.96-2.23c-2.21,0-3.86,0.74-4.96,2.23c-1.1,1.49-1.65,3.5-1.65,6.04c0,2.54,0.55,4.55,1.65,6.04
		c1.1,1.49,2.76,2.23,4.96,2.23C37.96,74.18,39.62,73.44,40.72,71.95z"/>
	<path class="st0" d="M63.64,76.19l-4.16-8.06h-0.3h-4.73v8.06h-2.6V55.63h6.97c2.46,0,4.29,0.52,5.49,1.55
		c1.2,1.03,1.8,2.55,1.8,4.53c0,1.48-0.33,2.73-0.97,3.75c-0.65,1.02-1.6,1.75-2.86,2.19l4.49,8.54H63.64z M62.24,64.77
		c0.72-0.6,1.08-1.62,1.08-3.06c0-1.32-0.36-2.25-1.08-2.79c-0.72-0.54-1.86-0.81-3.41-0.81h-4.37v7.56h4.4
		C60.39,65.68,61.52,65.38,62.24,64.77z"/>
	<path class="st0" d="M88.78,55.63v20.56h-2.6L75.13,60.33v15.86h-2.6V55.63h2.6l11.05,15.86V55.63H88.78z"/>
	<path class="st0" d="M98.21,74.17c-1.37-1.58-2.05-3.75-2.05-6.48V55.63h2.6V67.6c0,2.01,0.45,3.6,1.34,4.77
		c0.9,1.17,2.19,1.76,3.88,1.76c1.69,0,2.99-0.59,3.88-1.76c0.9-1.17,1.34-2.76,1.34-4.77V55.63h2.6v12.05
		c0,2.74-0.68,4.9-2.05,6.48c-1.37,1.59-3.29,2.38-5.77,2.38S99.58,75.75,98.21,74.17z"/>
</g>
</svg>
