<?xml version="1.0" encoding="utf-8"?>
<!-- Generator: Adobe Illustrator 27.0.1, SVG Export Plug-In . SVG Version: 6.00 Build 0)  -->
<svg version="1.1" id="Layer_1" xmlns="http://www.w3.org/2000/svg" xmlns:xlink="http://www.w3.org/1999/xlink" x="0px" y="0px"
	 viewBox="0 0 135.55 135.26" style="enable-background:new 0 0 135.55 135.26;" xml:space="preserve">
<style type="text/css">
	.st0{fill:#C6168D;}
	.st1{fill:#FFFFFF;}
	.st2{fill:#C5198D;}
</style>
<g>
	<circle class="st0" cx="67.78" cy="67.53" r="66.19"/>
	<g>
		<circle class="st1" cx="67.78" cy="67.53" r="46.87"/>
		<path class="st2" d="M95.69,78.39c-0.87-7.25-5.92-12.64-12.93-13.99c-6.96-1.35-14.52,3-16.91,9.72
			c-1.88,5.29-1.2,10.24,2.16,14.71c5.37,7.15,16.03,8.23,22.38,1.75c2.92-2.99,5.02-6.55,6.82-10.28
			c2.37-4.91,3.73-10.08,3.94-15.56c0.38-9.98-2.63-18.84-8.95-26.5c-6.26-7.6-14.34-12.19-24.1-13.79
			c-2.51-0.41-5.03-0.57-7.58-0.64c1.05-0.13,2.09-0.3,3.14-0.39c8.17-0.72,15.97,0.67,23.36,4.24c4.14,2,7.86,4.62,11.21,7.79
			c3.84,3.63,6.92,7.8,9.27,12.51c2.28,4.58,3.65,9.42,4.26,14.5c0.81,6.74,0.03,13.29-2.17,19.67c-1.76,5.09-4.42,9.69-7.9,13.82
			c-5.64,6.71-12.66,11.32-21,13.93c-3.24,1.02-6.57,1.56-9.96,1.83c-5.85,0.45-11.53-0.33-17.05-2.19
			c-7.42-2.5-13.73-6.73-18.95-12.57c-5.26-5.88-8.71-12.72-10.33-20.43c-0.75-3.58-1.09-7.23-0.89-10.89
			c0.41-7.61,2.5-14.72,6.52-21.23c2.86-4.62,6.42-8.6,10.79-11.81c3.46-2.54,7.36-4.18,11.5-5.28c3.91-1.04,7.88-1.45,11.91-1.21
			c4.42,0.26,8.66,1.31,12.71,3.11c4.79,2.13,8.93,5.14,12.46,9c4.77,5.22,7.81,11.3,9.09,18.27c0.49,2.65,0.75,5.31,0.64,8
			c-0.2,4.66-1.19,9.15-3.13,13.42C95.94,78,95.86,78.11,95.69,78.39z"/>
	</g>
	<g>
		<g>
			<path class="st1" d="M64.91,15.98l-2.97-2.92l0.26,3.14l-1.91,0.16L59.76,9.9l1.81-0.15l2.97,2.96l-0.25-3.19l1.91-0.16
				l0.53,6.46L64.91,15.98z"/>
			<path class="st1" d="M73.3,15.56c-0.59,0.43-1.39,0.62-2.42,0.55s-1.81-0.34-2.34-0.84s-0.77-1.19-0.72-2.07l0.22-3.86l2.08,0.12
				l-0.23,3.84c-0.02,0.36,0.06,0.66,0.24,0.89c0.18,0.23,0.46,0.35,0.83,0.38c0.37,0.02,0.66-0.07,0.87-0.28s0.33-0.49,0.35-0.85
				l0.23-3.84l2.08,0.12l-0.23,3.87C74.2,14.47,73.88,15.13,73.3,15.56z"/>
			<path class="st1" d="M80.92,11.29c0.46,0.43,0.63,0.97,0.52,1.62l-0.02,0.11l-1.91-0.38l0.01-0.04c0.04-0.18,0-0.35-0.11-0.5
				s-0.31-0.25-0.58-0.31c-0.27-0.05-0.49-0.05-0.65,0s-0.25,0.14-0.28,0.25c-0.03,0.17,0.04,0.31,0.22,0.43s0.48,0.26,0.9,0.44
				c0.49,0.21,0.89,0.4,1.2,0.58s0.56,0.42,0.75,0.73c0.2,0.31,0.25,0.68,0.17,1.13c-0.15,0.75-0.51,1.26-1.09,1.52
				c-0.58,0.26-1.29,0.31-2.15,0.15c-0.99-0.19-1.73-0.51-2.22-0.95c-0.49-0.44-0.65-1.08-0.48-1.93l1.93,0.38
				c-0.06,0.32-0.02,0.55,0.12,0.69s0.39,0.25,0.75,0.31c0.26,0.05,0.48,0.07,0.66,0.04s0.29-0.12,0.32-0.29
				c0.03-0.15-0.04-0.29-0.21-0.4s-0.46-0.25-0.87-0.42c-0.5-0.21-0.9-0.41-1.22-0.6c-0.32-0.19-0.57-0.44-0.77-0.77
				c-0.2-0.33-0.25-0.73-0.16-1.2c0.14-0.7,0.51-1.16,1.11-1.38s1.32-0.26,2.14-0.09C79.83,10.56,80.46,10.86,80.92,11.29z"/>
		</g>
		<g>
			<path class="st1" d="M35.6,108.49c0.19,0.6,0.07,1.16-0.34,1.67l-0.07,0.09l-1.49-1.27l0.02-0.03c0.12-0.14,0.17-0.31,0.15-0.49
				c-0.02-0.19-0.14-0.37-0.36-0.55c-0.21-0.18-0.4-0.29-0.56-0.32c-0.17-0.03-0.29,0-0.36,0.08c-0.11,0.13-0.12,0.29-0.02,0.48
				c0.1,0.19,0.29,0.47,0.57,0.82c0.33,0.42,0.58,0.78,0.76,1.09s0.28,0.64,0.3,1s-0.11,0.72-0.4,1.07c-0.5,0.58-1.06,0.85-1.7,0.79
				c-0.64-0.05-1.28-0.36-1.94-0.92c-0.77-0.66-1.26-1.29-1.47-1.92c-0.21-0.62-0.03-1.26,0.53-1.92l1.5,1.28
				c-0.21,0.25-0.29,0.47-0.23,0.66c0.06,0.19,0.22,0.41,0.5,0.64c0.2,0.17,0.39,0.29,0.55,0.36c0.17,0.07,0.31,0.04,0.42-0.1
				c0.1-0.12,0.1-0.27,0.01-0.45c-0.1-0.18-0.28-0.45-0.55-0.8c-0.33-0.43-0.58-0.8-0.77-1.12c-0.18-0.32-0.28-0.67-0.29-1.05
				c-0.01-0.38,0.14-0.76,0.45-1.12c0.46-0.54,1.01-0.76,1.65-0.66c0.64,0.1,1.27,0.42,1.92,0.97
				C35.01,107.32,35.42,107.89,35.6,108.49z"/>
			<path class="st1" d="M37.2,117l0.27-0.92l-1.9-1.24l-0.73,0.62l-1.78-1.16l5.52-4.14l2.03,1.32l-1.56,6.72L37.2,117z
				 M36.73,113.87l1.18,0.77l0.69-2.3l-0.03-0.02L36.73,113.87z"/>
			<path class="st1" d="M45.22,121.15l0.97-2.12c0.12-0.26,0.25-0.53,0.4-0.8c0.15-0.27,0.27-0.49,0.38-0.67s0.18-0.29,0.21-0.34
				l-0.03-0.02l-2.92,3.49l-1.48-0.68l0.73-4.49l-0.03-0.02c-0.02,0.05-0.06,0.18-0.12,0.38c-0.06,0.2-0.14,0.44-0.25,0.73
				c-0.1,0.29-0.22,0.56-0.34,0.83l-0.97,2.12l-1.74-0.8l2.7-5.89l2.67,1.23l-0.67,3.81l0.03,0.02l2.44-3l2.58,1.18l-2.7,5.89
				L45.22,121.15z"/>
			<path class="st1" d="M50.59,116.32l5.38,1.58l-0.44,1.49l-3.38-1l-0.25,0.86l2.89,0.85l-0.42,1.43l-2.89-0.85l-0.28,0.95
				l3.44,1.01l-0.44,1.49l-5.44-1.6L50.59,116.32z"/>
			<path class="st1" d="M60.33,125.2l-2.22-3.52l-0.47,3.11l-1.89-0.29l0.98-6.41l1.8,0.28l2.21,3.57l0.48-3.16l1.89,0.29
				l-0.98,6.41L60.33,125.2z"/>
			<path class="st1" d="M71.68,125.52l-0.33-0.9l-2.27,0.13l-0.22,0.93l-2.13,0.12l1.98-6.61l2.42-0.14l2.74,6.34L71.68,125.52z
				 M69.43,123.28l1.4-0.08l-0.81-2.27h-0.04L69.43,123.28z"/>
			<path class="st1" d="M73.94,118.86l2.05-0.34l0.8,4.76l3.28-0.55l0.27,1.64l-5.33,0.89L73.94,118.86z"/>
			<path class="st1" d="M84.45,116.87c0.61,0.17,1.01,0.57,1.21,1.2l0.03,0.11l-1.87,0.55l-0.01-0.04
				c-0.05-0.18-0.16-0.31-0.33-0.39s-0.39-0.08-0.66,0c-0.26,0.08-0.46,0.18-0.58,0.3s-0.16,0.24-0.13,0.35
				c0.05,0.16,0.18,0.25,0.4,0.28c0.22,0.02,0.55,0.01,1-0.03c0.53-0.04,0.97-0.06,1.33-0.04c0.35,0.02,0.69,0.12,1.01,0.3
				s0.54,0.49,0.67,0.92c0.22,0.74,0.13,1.35-0.26,1.86s-1,0.88-1.84,1.12c-0.97,0.29-1.77,0.34-2.41,0.18
				c-0.64-0.17-1.07-0.66-1.32-1.49l1.89-0.56c0.09,0.31,0.24,0.5,0.43,0.56s0.46,0.04,0.81-0.07c0.25-0.07,0.45-0.16,0.6-0.27
				c0.15-0.1,0.2-0.24,0.15-0.41c-0.04-0.15-0.17-0.24-0.38-0.26c-0.21-0.02-0.53-0.01-0.97,0.03c-0.54,0.04-0.99,0.05-1.36,0.03
				c-0.37-0.02-0.71-0.13-1.04-0.33c-0.33-0.2-0.56-0.53-0.7-0.99c-0.2-0.68-0.08-1.26,0.35-1.74c0.43-0.48,1.05-0.83,1.86-1.07
				C83.14,116.72,83.84,116.69,84.45,116.87z"/>
			<path class="st1" d="M88.61,114.86l5-2.53l0.7,1.39l-3.15,1.59l0.4,0.8l2.69-1.36l0.67,1.33l-2.69,1.36l0.45,0.88l3.2-1.62
				l0.7,1.39l-5.06,2.56L88.61,114.86z"/>
			<path class="st1" d="M94.3,111.92l4.65-3.13l0.87,1.29l-2.92,1.97l0.5,0.74l2.5-1.68l0.83,1.24l-2.5,1.68l0.55,0.82l2.98-2
				l0.87,1.29l-4.71,3.17L94.3,111.92z"/>
			<path class="st1" d="M107.36,110.09l-4.13-0.55l2.09,2.35l-1.43,1.27l-4.3-4.85l1.36-1.21l4.16,0.58l-2.12-2.39l1.43-1.27
				l4.3,4.85L107.36,110.09z"/>
		</g>
	</g>
</g>
</svg>
